<svg width="593" height="618" viewBox="0 0 593 618" fill="none" xmlns="http://www.w3.org/2000/svg">
<path d="M562.333 190.767C581 166.267 584.5 135.934 569.333 109.101C565.833 102.101 561.167 93.934 557.667 86.934C548.333 70.6006 539 53.1007 529.667 36.7673C525 28.6007 521.5 21.6006 516.833 13.434C513.333 7.60064 507.5 2.93398 500.5 0.600643C491.167 -1.73269 480.667 2.93398 476 11.1006C465.5 29.7673 456.167 47.2673 445.667 65.934C400.167 39.1006 348.833 25.1007 296.333 25.1007C133 25.1007 0 158.101 0 321.434C0 484.767 133 617.767 296.333 617.767C459.667 617.767 592.667 484.767 592.667 321.434C592.667 275.934 582.167 231.601 562.333 190.767ZM528.5 132.434C532 141.767 533.167 152.267 526.167 161.601C519.167 169.767 508.667 174.434 498.167 174.434C486.5 175.601 474.833 170.934 467.833 162.767C458.5 153.434 458.5 140.601 464.333 128.934C469 119.601 474.833 110.267 479.5 100.934C485.333 91.6006 490 81.1006 495.833 71.7673C499.333 78.7673 502.833 84.6006 506.333 91.6006C512.167 103.267 518 113.767 525 125.434C526.167 126.601 527.333 130.101 528.5 132.434ZM296.333 571.101C158.667 571.101 46.6667 459.101 46.6667 321.434C46.6667 183.767 158.667 71.7673 296.333 71.7673C341.833 71.7673 385 83.434 423.5 106.767C411.833 127.767 409.5 151.101 418.833 172.101C436.333 211.767 484.167 229.267 522.667 216.434C537.833 249.101 544.833 284.101 544.833 320.267C546 459.094 434 571.094 296.327 571.094L296.333 571.101Z" fill="white"/>
<path d="M233.333 261.939C233.333 239.772 214.667 221.105 192.5 221.105C170.333 221.105 151.667 239.772 151.667 261.939C151.667 284.105 170.333 302.772 192.5 302.772C214.667 302.772 233.333 285.272 233.333 261.939Z" fill="white"/>
<path d="M400.173 221.113C378.007 221.113 359.34 239.78 359.34 261.947C359.34 284.113 378.007 302.78 400.173 302.78C422.34 302.78 441.007 284.113 441.007 261.947C441.007 239.78 422.34 221.113 400.173 221.113Z" fill="white"/>
<path d="M358.173 431.113H249.673H234.507C222.84 431.113 211.173 441.613 211.173 454.447C211.173 467.28 221.673 477.78 234.507 477.78H343.007H358.173C369.84 477.78 381.507 467.28 381.507 454.447C380.34 441.613 371.007 431.113 358.173 431.113Z" fill="white"/>
</svg>
