<svg width="24" height="24" viewBox="0 0 24 24" fill="none" xmlns="http://www.w3.org/2000/svg">
<path d="M7.803 5.72656C8.392 5.72656 8.922 5.77756 9.408 5.88156C9.891 5.98456 10.303 6.15456 10.651 6.38956C10.994 6.62456 11.262 6.93656 11.455 7.32856C11.642 7.71556 11.735 8.19956 11.735 8.77156C11.735 9.39156 11.595 9.90956 11.314 10.3226C11.031 10.7366 10.614 11.0756 10.058 11.3376C10.815 11.5566 11.376 11.9396 11.748 12.4836C12.122 13.0326 12.305 13.6896 12.305 14.4596C12.305 15.0846 12.186 15.6216 11.947 16.0726C11.707 16.5306 11.378 16.9016 10.973 17.1866C10.565 17.4756 10.097 17.6876 9.574 17.8266C9.055 17.9636 8.517 18.0326 7.965 18.0326H2V5.72656H7.803ZM7.452 10.6986C7.932 10.6986 8.33 10.5846 8.644 10.3536C8.956 10.1256 9.107 9.74956 9.107 9.23456C9.107 8.94856 9.056 8.71256 8.956 8.52756C8.853 8.34456 8.714 8.20056 8.539 8.09956C8.365 7.99456 8.17 7.92356 7.942 7.88456C7.719 7.84056 7.485 7.82356 7.245 7.82356H4.71V10.6986H7.452ZM7.603 15.9376C7.87 15.9376 8.124 15.9146 8.363 15.8606C8.604 15.8086 8.818 15.7246 9 15.5996C9.182 15.4796 9.332 15.3166 9.44 15.1086C9.549 14.9026 9.602 14.6336 9.602 14.3106C9.602 13.6766 9.423 13.2256 9.069 12.9526C8.714 12.6826 8.238 12.5486 7.655 12.5486H4.71V15.9386H7.603V15.9376ZM16.168 15.8966C16.535 16.2546 17.064 16.4346 17.752 16.4346C18.245 16.4346 18.671 16.3096 19.03 16.0616C19.384 15.8126 19.6 15.5466 19.683 15.2716H21.838C21.492 16.3436 20.967 17.1096 20.249 17.5706C19.54 18.0336 18.677 18.2636 17.669 18.2636C16.967 18.2636 16.335 18.1506 15.769 17.9266C15.202 17.6996 14.727 17.3826 14.33 16.9686C13.941 16.5526 13.64 16.0616 13.425 15.4836C13.212 14.9096 13.105 14.2736 13.105 13.5846C13.105 12.9186 13.216 12.2956 13.434 11.7206C13.657 11.1436 13.963 10.6456 14.368 10.2276C14.773 9.80756 15.253 9.47656 15.812 9.23356C16.371 8.99256 16.987 8.87156 17.67 8.87156C18.424 8.87156 19.083 9.01756 19.649 9.31156C20.212 9.60356 20.675 9.99856 21.039 10.4936C21.402 10.9866 21.661 11.5516 21.822 12.1846C21.983 12.8166 22.039 13.4766 21.993 14.1676H15.562C15.563 14.8716 15.8 15.5386 16.168 15.8966ZM18.98 11.2156C18.689 10.8936 18.197 10.7196 17.595 10.7196C17.204 10.7196 16.881 10.7846 16.621 10.9186C16.367 11.0516 16.16 11.2156 16.001 11.4096C15.844 11.6066 15.736 11.8146 15.673 12.0376C15.611 12.2546 15.573 12.4506 15.562 12.6246H19.544C19.486 12.0006 19.272 11.5396 18.98 11.2156ZM15.062 6.55256H20.051V7.76756H15.062V6.55256Z" fill="white"/>
</svg>
