<svg width="24" height="24" viewBox="0 0 24 24" fill="none" xmlns="http://www.w3.org/2000/svg">
<path fill-rule="evenodd" clip-rule="evenodd" d="M12.0287 2C6.51969 2 2.05469 6.465 2.05469 11.974C2.05469 16.38 4.91169 20.119 8.87569 21.439C9.37469 21.529 9.55469 21.222 9.55469 20.958C9.55469 20.721 9.54669 20.093 9.54369 19.262C6.76869 19.864 6.18269 17.924 6.18269 17.924C5.73069 16.772 5.07569 16.465 5.07569 16.465C4.17069 15.846 5.14469 15.86 5.14469 15.86C6.14669 15.93 6.67169 16.888 6.67169 16.888C7.56169 18.412 9.00769 17.972 9.57369 17.717C9.66469 17.072 9.92469 16.632 10.2087 16.383C7.99469 16.132 5.66669 15.276 5.66669 11.453C5.66669 10.366 6.05569 9.474 6.69069 8.778C6.58969 8.525 6.24469 7.51 6.78969 6.138C6.78969 6.138 7.62669 5.869 9.53169 7.159C10.3297 6.938 11.1807 6.827 12.0277 6.823C12.8767 6.827 13.7287 6.938 14.5237 7.159C16.4297 5.868 17.2657 6.138 17.2657 6.138C17.8107 7.51 17.4687 8.525 17.3647 8.778C18.0047 9.474 18.3887 10.365 18.3887 11.453C18.3887 15.286 16.0587 16.128 13.8367 16.375C14.1917 16.683 14.5117 17.291 14.5117 18.221C14.5117 19.555 14.4997 20.631 14.4997 20.958C14.4997 21.225 14.6777 21.535 15.1867 21.437C19.1487 20.115 22.0027 16.379 22.0027 11.974C22.0027 6.465 17.5377 2 12.0287 2Z" fill="white"/>
</svg>
