<svg width="24" height="24" viewBox="0 0 24 24" fill="none" xmlns="http://www.w3.org/2000/svg">
<path d="M20.95 8.30056C20.939 7.54356 20.799 6.79256 20.531 6.08456C20.062 4.87556 19.107 3.91956 17.898 3.45156C17.199 3.18856 16.46 3.04756 15.712 3.03156C14.75 2.98856 14.445 2.97656 12.003 2.97656C9.561 2.97656 9.248 2.97656 8.293 3.03156C7.546 3.04756 6.807 3.18856 6.108 3.45156C4.899 3.91956 3.943 4.87556 3.475 6.08456C3.212 6.78356 3.07 7.52256 3.056 8.26956C3.013 9.23256 3 9.53756 3 11.9796C3 14.4216 3 14.7336 3.056 15.6896C3.071 16.4376 3.212 17.1756 3.475 17.8766C3.944 19.0846 4.899 20.0406 6.109 20.5086C6.805 20.7806 7.544 20.9346 8.294 20.9586C9.257 21.0016 9.562 21.0146 12.004 21.0146C14.446 21.0146 14.759 21.0146 15.714 20.9586C16.461 20.9436 17.2 20.8026 17.9 20.5396C19.109 20.0706 20.064 19.1146 20.533 17.9066C20.796 17.2066 20.937 16.4686 20.952 15.7196C20.995 14.7576 21.008 14.4526 21.008 12.0096C21.006 9.56756 21.006 9.25756 20.95 8.30056ZM11.997 16.5976C9.443 16.5976 7.374 14.5286 7.374 11.9746C7.374 9.42056 9.443 7.35156 11.997 7.35156C14.549 7.35156 16.62 9.42056 16.62 11.9746C16.62 14.5286 14.549 16.5976 11.997 16.5976ZM16.804 8.25856C16.207 8.25856 15.726 7.77656 15.726 7.18056C15.726 6.58456 16.207 6.10256 16.804 6.10256C17.399 6.10256 17.881 6.58456 17.881 7.18056C17.881 7.77656 17.399 8.25856 16.804 8.25856Z" fill="white"/>
<path d="M11.9952 14.9826C13.6537 14.9826 14.9982 13.6381 14.9982 11.9796C14.9982 10.3211 13.6537 8.97656 11.9952 8.97656C10.3367 8.97656 8.99219 10.3211 8.99219 11.9796C8.99219 13.6381 10.3367 14.9826 11.9952 14.9826Z" fill="white"/>
</svg>
