<svg width="24" height="24" viewBox="0 0 24 24" fill="none" xmlns="http://www.w3.org/2000/svg">
<path d="M19.633 8.00144C19.646 8.17644 19.646 8.35044 19.646 8.52444C19.646 13.8494 15.593 19.9854 8.186 19.9854C5.904 19.9854 3.784 19.3244 2 18.1764C2.324 18.2134 2.636 18.2264 2.973 18.2264C4.856 18.2264 6.589 17.5904 7.974 16.5054C6.203 16.4684 4.719 15.3084 4.207 13.7124C4.456 13.7494 4.706 13.7744 4.968 13.7744C5.329 13.7744 5.692 13.7244 6.029 13.6374C4.182 13.2634 2.799 11.6424 2.799 9.68444V9.63444C3.336 9.93344 3.959 10.1204 4.619 10.1454C3.534 9.42344 2.823 8.18844 2.823 6.79144C2.823 6.04344 3.022 5.35744 3.371 4.75944C5.354 7.20244 8.335 8.79944 11.677 8.97444C11.615 8.67444 11.577 8.36344 11.577 8.05144C11.577 5.83144 13.373 4.02344 15.605 4.02344C16.765 4.02344 17.812 4.50944 18.548 5.29544C19.458 5.12044 20.33 4.78344 21.104 4.32244C20.805 5.25744 20.168 6.04344 19.333 6.54244C20.144 6.45444 20.93 6.23044 21.652 5.91844C21.104 6.71644 20.419 7.42744 19.633 8.00144Z" fill="white"/>
</svg>
